<svg width="78" height="48" viewBox="0 0 78 48" fill="none" xmlns="http://www.w3.org/2000/svg">
<path d="M77.9361 17.8437H75.9335V21.5488C75.9335 22.1356 75.6078 22.4662 75.0414 22.4662H58.7969V18.0403C58.6565 18.0002 58.521 17.9621 58.3864 17.9269C56.9532 17.5562 56.2015 17.5415 55.9489 17.5415C55.2811 17.5415 54.3753 17.6618 53.762 18.0306C53.2327 18.3327 52.788 18.764 52.4692 19.2845C52.1607 19.8066 52.0043 20.405 52.0177 21.0118C52.0129 21.496 52.1137 21.9755 52.3131 22.4165C52.5126 22.8575 52.8057 23.2494 53.1721 23.5647C53.2063 23.594 53.9736 24.354 55.3561 24.4176H56.8791C56.6841 25.247 56.0143 25.7351 55.1309 25.7351H53.8303L54.659 27.5807H55.1299C56.0129 27.5802 56.8661 27.2597 57.5323 26.6783C58.1985 26.097 58.6331 25.2938 58.756 24.4166L59.3546 24.4244H75.2344C75.4997 24.4259 75.7643 24.3973 76.0232 24.3393L76.0973 24.3217C77.6427 23.9236 77.9128 22.4125 77.9361 21.5478C77.9361 21.496 77.9361 21.45 77.9361 21.4021V17.8437ZM56.8264 22.4496L56.7689 22.4839C56.4949 22.6452 56.1352 22.7264 55.6964 22.7264C55.127 22.7264 54.6941 22.5523 54.3694 22.1943C54.0962 21.8499 53.9554 21.4184 53.9726 20.9786C53.9531 20.4699 54.1052 20.0474 54.4231 19.7266C54.7711 19.3666 55.2362 19.1906 55.8456 19.1906C56.1408 19.1895 56.4353 19.2223 56.7231 19.2884L56.8274 19.3128L56.8264 22.4496Z" fill="#323232"/>
<path d="M3.99723 17.8202C4.34014 17.8045 4.67838 17.7342 4.99927 17.6119V16.0474H3.00104V17.0145C3.00104 17.5581 3.3266 17.8202 3.99723 17.8202Z" fill="#323232"/>
<path d="M48.2001 21.5599C48.2001 22.1242 47.8725 22.4617 47.3226 22.4617H32.175C31.2917 22.4617 31.0372 21.9658 31.045 21.0063V17.8431H29.0706V21.2958C29.0706 22.1076 28.6923 22.4861 27.8811 22.4861H12.5044C11.9613 22.4861 11.6503 22.1565 11.6503 21.5843V14.8608H9.70029V21.4396C9.70029 23.3557 10.6451 24.4101 12.3591 24.4101H27.9962C28.8142 24.4101 29.5406 24.0785 29.9393 23.5239L30.0427 23.3801L30.1558 23.5161C30.6433 24.1029 31.3336 24.4101 32.1584 24.4101H47.5157C49.9151 24.4101 50.1745 22.3326 50.1745 21.4396V17.8431H48.2001V21.5599Z" fill="#323232"/>
<path d="M5.88997 24.2239C5.89127 24.2455 5.89388 24.2671 5.89777 24.2884C5.90804 24.3502 5.9139 24.4126 5.91532 24.4752V24.573L5.82757 24.6073C5.13142 24.8811 4.48793 25.02 3.9156 25.02C2.62275 25.02 1.94025 24.3804 1.94025 23.1704V19.7363H0V23.5186C0 25.6274 1.27237 26.6486 3.89025 26.6486C4.91985 26.6486 6.201 26.3816 7.80487 25.8338V19.7363H5.88997V24.2239Z" fill="#323232"/>
<path d="M24.5353 26.7777C24.5353 27.3174 24.8609 27.5795 25.5306 27.5795C25.8735 27.5638 26.2117 27.4935 26.5326 27.3712V25.8066H24.5353V26.7777Z" fill="#323232"/>
<path d="M27.939 26.7777C27.939 27.3174 28.2646 27.5795 28.9342 27.5795C29.2758 27.5634 29.6127 27.4931 29.9324 27.3712V25.8066H27.939V26.7777Z" fill="#323232"/>
<path d="M46.2072 26.7777C46.2072 27.3174 46.5328 27.5795 47.2024 27.5795C47.5453 27.5638 47.8835 27.4935 48.2044 27.3712V25.8066H46.2072V26.7777Z" fill="#323232"/>
<path d="M72.4942 26.7777C72.4942 27.3174 72.8198 27.5795 73.4894 27.5795C73.8317 27.5636 74.1692 27.4933 74.4895 27.3712V25.8066H72.4942V26.7777Z" fill="#323232"/>
<path d="M35.6333 0.0417002C34.1153 0.128359 32.6029 0.295525 31.1025 0.542491C31.0911 0.543658 31.0806 0.54931 31.0734 0.558207C31.0662 0.567103 31.0628 0.578514 31.0639 0.589927C31.0651 0.601341 31.0707 0.611824 31.0796 0.619069C31.0885 0.626315 31.0999 0.629729 31.1112 0.628561C37.1767 0.803642 42.4817 4.11256 45.5851 9.04807C46.2707 10.1363 47.2196 11.0329 48.3436 11.6542C49.4676 12.2755 50.73 12.6014 52.0133 12.6015L54.2304 12.6299H61.8988C57.6039 5.11316 47.4552 -0.544183 35.6333 0.0417002Z" fill="#C8102E"/>
<path d="M16.043 12.5803H20.9355C21.8784 12.5784 22.8012 12.3067 23.5956 11.7972C24.39 11.2877 25.0231 10.5614 25.4205 9.70367C25.7109 9.07305 26.0633 8.47311 26.4725 7.91277C27.6927 6.33986 29.3706 5.18684 31.2734 4.61363C32.1789 4.36316 33.1176 4.25493 34.0561 4.29281L34.0629 4.2488C32.5938 3.74053 31.051 3.47912 29.497 3.47512C23.5027 3.46436 18.3303 7.2144 16.043 12.5803Z" fill="#C8102E"/>
<path d="M6.90007 36.1423V36.1003C7.50875 35.8478 8.03349 35.4272 8.41327 34.8874C8.79751 34.3615 9.00418 33.7261 9.00315 33.074C9.0077 30.4227 7.20915 29.0935 3.6075 29.0863C2.6754 29.0863 1.4937 29.0697 0.0312007 29.2643L0 43.3842C0.6435 43.4957 2.98545 43.617 3.5334 43.618C7.50685 43.6258 9.49617 42.2623 9.50137 39.5275C9.52176 38.7464 9.28156 37.9808 8.81887 37.3522C8.36192 36.7393 7.72232 36.336 6.90007 36.1423ZM2.59447 31.4122C2.79987 31.3848 2.99487 31.361 3.17947 31.3408C3.36043 31.3205 3.54241 31.3107 3.7245 31.3115C4.53245 31.3115 5.14182 31.4093 5.55262 31.6049C6.09927 31.8944 6.37227 32.4102 6.37162 33.1523C6.37162 34.4173 5.52663 35.0478 3.83663 35.0439H2.58375L2.59447 31.4122ZM3.72548 41.3507C3.53977 41.3503 3.35423 41.3395 3.16972 41.3184C2.97862 41.2982 2.78005 41.2738 2.574 41.2451L2.58278 37.2671H3.89805C5.8708 37.271 6.85587 37.9603 6.85327 39.3348C6.85067 40.684 5.80807 41.3559 3.72548 41.3507Z" fill="#323232"/>
<path d="M16.2981 32.9014C14.7498 32.9014 13.5021 33.4074 12.5551 34.4194C11.608 35.4314 11.1329 36.7156 11.1296 38.2721C11.1257 39.824 11.5889 41.1031 12.519 42.1092C13.4895 43.1284 14.7417 43.6393 16.2757 43.6419C17.824 43.6419 19.0717 43.1431 20.0187 42.1454C20.9658 41.1477 21.4429 39.8648 21.45 38.2966C21.45 36.7433 20.9801 35.4571 20.0402 34.438C19.1003 33.4188 17.8529 32.9066 16.2981 32.9014ZM18.173 40.513C17.7336 41.1996 17.1028 41.5416 16.2806 41.539C15.4583 41.5364 14.8288 41.1918 14.392 40.5051C14.0371 39.9411 13.8606 39.2052 13.8626 38.2976C13.8626 37.4049 14.042 36.6631 14.4008 36.0724C14.8402 35.3857 15.4713 35.0434 16.2942 35.0454C17.1171 35.0473 17.7463 35.3991 18.1818 36.1007C18.5367 36.6922 18.7135 37.428 18.7122 38.3083C18.7103 39.2173 18.5305 39.9532 18.173 40.5159V40.513Z" fill="#323232"/>
<path d="M32.5149 41.2256L32.5315 33.1651L30.0657 33.1602L30.0501 40.6427C30.0501 40.6847 30.0501 40.7405 30.0599 40.808C30.0696 40.8754 30.0765 40.9654 30.0901 41.076C29.3101 41.3759 28.6179 41.5255 28.0134 41.5249C26.6575 41.5249 25.9808 40.8914 25.9834 39.6244L25.9971 33.1514H23.5313L23.5167 40.0157C23.5121 42.4479 25.0029 43.6673 27.989 43.6738C29.2077 43.6738 30.7632 43.3403 32.6553 42.6732C32.6007 42.3436 32.5647 42.0589 32.5442 41.8173C32.5237 41.5758 32.514 41.3762 32.5149 41.2256Z" fill="#323232"/>
<path d="M40.0725 32.9534C39.2712 32.9433 38.4798 33.1328 37.7695 33.5051L37.7803 29.0488H35.3145L35.2872 41.7925C35.2872 41.9304 35.2755 42.1016 35.255 42.308C35.2345 42.5144 35.2092 42.754 35.1819 43.0288C36.4404 43.481 37.7685 43.7072 39.1053 43.6969C40.6932 43.6969 42.03 43.1981 43.1155 42.2004C44.2133 41.1858 44.7639 39.9018 44.7671 38.3486C44.7704 36.7954 44.3826 35.5304 43.6039 34.5536C42.757 33.4901 41.5798 32.9567 40.0725 32.9534ZM41.3302 40.5826C40.8102 41.2418 40.1043 41.5702 39.2125 41.5676C38.7096 41.5789 38.2086 41.5014 37.7325 41.3387C37.7453 41.2779 37.7522 41.216 37.753 41.1538V41.0296L37.7647 35.5874C38.1898 35.2614 38.7517 35.0984 39.4504 35.0984C40.313 35.0984 40.9698 35.4228 41.4209 36.0716C41.8174 36.6637 42.0147 37.3992 42.0127 38.2782C42.0121 39.2243 41.7849 39.9928 41.3312 40.5836L41.3302 40.5826Z" fill="#323232"/>
<path d="M66.1853 36.3688C66.1853 35.2283 65.8239 34.3689 65.1011 33.7905C64.4179 33.2688 63.5008 33.0057 62.3496 33.0011C60.9515 32.9927 59.5687 33.2933 58.2995 33.8814L59.138 35.7594C60.039 35.3619 61.0115 35.1535 61.9957 35.1471C63.1462 35.1471 63.7208 35.4643 63.7195 36.0988C63.7195 36.552 63.1712 36.9015 62.0747 37.1473C60.4425 37.5007 59.4142 37.787 58.9898 38.0061C57.8932 38.5675 57.3433 39.439 57.3401 40.6206C57.3401 41.7213 57.8601 42.5471 58.9001 43.0981C59.7074 43.5259 60.7207 43.741 61.9401 43.7436C63.0906 43.7436 64.5502 43.4854 66.3189 42.969C66.2373 42.5405 66.1901 42.1061 66.1775 41.6701L66.1853 36.3688ZM61.9616 41.7043C60.6869 41.7043 60.0509 41.2837 60.0535 40.4425C60.0535 40.0031 60.3073 39.6738 60.815 39.4547C61.0483 39.3464 61.5761 39.2033 62.3984 39.0253C63.0568 38.889 63.4956 38.7113 63.7146 38.4922L63.7098 41.0196C63.7102 41.0713 63.7135 41.1229 63.7195 41.1742C63.7263 41.2368 63.7361 41.316 63.7497 41.4118C63.1718 41.5992 62.5689 41.6978 61.9616 41.7043Z" fill="#323232"/>
<path d="M73.5277 33.0244C72.3486 33.0244 70.7931 33.3645 68.8613 34.0446C68.9153 34.3752 68.9523 34.6605 68.9725 34.9004C68.9926 35.1404 69.0024 35.336 69.0017 35.4873L68.9851 43.5478H71.4509L71.4665 36.0653C71.4665 36.0096 71.4665 35.948 71.4568 35.8795C71.447 35.811 71.4392 35.7279 71.4266 35.632C72.2066 35.3308 72.8985 35.1808 73.5023 35.1821C74.8582 35.1821 75.5352 35.8159 75.5333 37.0835L75.5196 43.5625H77.9863L78 36.6982C78.0052 34.2555 76.5144 33.0309 73.5277 33.0244Z" fill="#323232"/>
<path d="M51.4 41.0377L48.475 33.1982L45.7031 33.1943L49.53 42.3944C49.8303 43.1116 50.2132 43.5179 50.6786 43.6131C50.2138 44.7927 49.505 45.6485 48.5521 46.1806L49.8586 47.9999C51.078 47.3282 52.0289 46.0323 52.7114 44.1119L56.6387 33.2149L54.0296 33.21L51.4 41.0377Z" fill="#323232"/>
</svg>
