<svg width="296" height="290" viewBox="0 0 296 290" fill="none" xmlns="http://www.w3.org/2000/svg">
<rect x="0.5" y="0.5" width="295" height="289" stroke="#F2F2FA"/>
<path d="M69.1063 134.514C80.2403 134.514 89.3411 131.076 95.247 125.346C99.7006 120.952 102.315 115.031 102.315 108.251C102.315 102.043 99.9911 96.5037 95.7311 92.2061C91.4711 88.0039 85.2748 84.8523 77.5294 83.4198L64.7495 80.9367C59.4245 79.9817 56.52 77.3076 56.52 73.774C56.52 68.9988 61.1672 65.7517 68.6222 65.7517C73.2694 65.7517 77.2389 67.1843 79.853 69.8584C81.4989 71.6729 82.6607 73.965 82.9512 76.5436L101.347 72.4369C100.862 67.1843 98.3452 62.6001 94.5693 58.8755C88.5666 52.9543 79.3689 49.2297 68.4285 49.2297C58.3595 49.2297 49.9364 52.4768 44.1273 57.7295C39.1896 62.3136 36.3819 68.5213 36.3819 75.3975C36.3819 81.4142 38.4151 86.4759 42.3846 90.3915C46.3541 94.3071 52.1632 97.2677 59.715 99.0823L72.3012 102.043C78.5944 103.475 81.4021 105.767 81.4021 109.874C81.4021 114.936 76.7549 117.896 69.2031 117.896C63.7813 117.896 59.2309 116.082 56.4232 113.121C54.39 111.116 53.325 108.537 53.1314 105.576L34.252 109.683C34.736 115.222 37.3501 120.093 41.3196 124.009C47.6128 130.598 57.6818 134.514 69.1063 134.514Z" fill="#4F008C"/>
<path d="M220.722 134.514C232.921 134.514 242.409 130.121 248.896 123.913C254.027 119.042 257.125 113.312 258.868 107.391L239.505 100.992C238.633 103.953 236.987 107.009 234.373 109.492C231.275 112.453 226.918 114.554 220.819 114.554C215.203 114.554 209.878 112.453 206.103 108.633C202.327 104.717 200.003 98.9868 200.003 91.8241C200.003 84.6613 202.327 78.9312 206.103 75.0155C209.878 71.2909 215.01 69.2854 220.625 69.2854C226.628 69.2854 230.694 71.2909 233.696 74.156C236.213 76.6391 237.665 79.6952 238.633 82.8468L258.287 76.3526C256.835 70.6224 253.64 64.8922 248.993 60.2126C242.409 53.8139 232.727 49.2297 220.044 49.2297C208.329 49.2297 197.679 53.6229 190.128 61.1676C182.479 68.8078 177.929 79.4087 177.929 91.8241C177.929 104.239 182.77 114.84 190.515 122.48C197.97 130.121 208.717 134.514 220.722 134.514Z" fill="#4F008C"/>
<path d="M131.069 132.031V69.1904H109.285V50.1853H174.54V69.1904H152.659V132.031H131.069Z" fill="#4F008C"/>
<path d="M86.7128 217.125C86.7128 230.816 76.6996 239.529 60.7017 239.529H34V167H62.4281C75.894 167 84.1808 174.015 84.1808 185.217C84.1808 191.78 80.6128 196.872 74.7431 199.587C82.3392 202.416 86.7128 208.639 86.7128 217.125ZM61.1621 177.636H46.5452V195.514H61.047C67.7224 195.514 71.8657 192.006 71.8657 186.575C71.8657 180.804 68.0677 177.636 61.1621 177.636ZM74.1676 217.125C74.1676 210.11 69.1035 206.15 60.1262 206.15H46.5452V229.006H60.0111C68.7582 228.893 74.1676 224.367 74.1676 217.125Z" fill="#03BB86"/>
<path d="M139.771 203.661V239.529H127.686V233.419C124.118 238.284 118.364 241 110.883 241C100.409 241 93.1582 234.664 93.1582 225.385C93.1582 217.012 98.4525 211.128 107.315 210.11L127.686 207.621V205.132C127.686 202.19 126.075 200.606 123.313 200.606H97.7619V189.969H123.773C134.016 189.969 139.771 194.835 139.771 203.661ZM127.686 223.236V216.899L112.149 219.049C107.775 219.615 105.473 221.878 105.473 225.385C105.473 229.232 108.466 231.495 113.875 231.495C119.86 231.495 125.615 228.101 127.686 223.236Z" fill="#03BB86"/>
<path d="M202.265 207.845V239.527H189.95V210.787C189.95 204.337 186.842 199.585 179.592 199.585C174.182 199.585 168.197 203.093 165.78 208.071V239.527H153.465V189.967H165.78V196.19C169.924 191.325 176.024 188.609 183.275 188.609C195.129 188.609 202.265 196.304 202.265 207.845Z" fill="#03BB86"/>
<path d="M233.112 218.483H227.472V239.529H215.157V167H227.472V208.752H232.996L246.923 189.969H261.079L243.24 213.052L262 239.529H247.498L233.112 218.483Z" fill="#03BB86"/>
</svg>
