<svg id="Group_3851" data-name="Group 3851" xmlns="http://www.w3.org/2000/svg" width="70.655" height="70.655" viewBox="0 0 70.655 70.655">
  <g id="Group_3845" data-name="Group 3845" transform="translate(0 0)">
    <rect id="Rectangle_549" data-name="Rectangle 549" width="70.655" height="70.655" fill="#fff"/>
    <rect id="Rectangle_550" data-name="Rectangle 550" width="63.864" height="63.865" transform="translate(3.405 3.397)" fill="#ffcb05"/>
    <path id="Path_8093" data-name="Path 8093" d="M114.541,241.085c0,6.717-13.409,12.161-29.948,12.161S54.647,247.8,54.647,241.085s13.408-12.159,29.946-12.159,29.948,5.441,29.948,12.159" transform="translate(-49.268 -205.945)" fill="#00678f"/>
    <path id="Path_8094" data-name="Path 8094" d="M162.118,302.021l3.047-12.166h4.876v7.087l3.2-7.087h5.03l-3.046,12.166h-3.2l1.828-7.852-3.81,7.852h-2.588v-7.852l-1.986,7.852Z" transform="translate(-145.892 -260.878)" fill="#fff"/>
    <path id="Path_8095" data-name="Path 8095" d="M336.495,399.491l.459-1.695h3.5L340,399.491Z" transform="translate(-302.919 -358.122)" fill="#ed1c24"/>
    <path id="Path_8096" data-name="Path 8096" d="M416.369,302.021l3.047-12.166h3.507l1.524,6.471,1.676-6.471h3.2l-3.049,12.166h-3.353l-1.676-6.621-1.676,6.621Z" transform="translate(-374.735 -260.878)" fill="#fff"/>
  </g>
  <g id="Group_3846" data-name="Group 3846" transform="translate(32.854 28.962)">
    <path id="Path_8097" data-name="Path 8097" d="M329.52,289.882l-.761,3.081h3.2l-1.727,6.675h3.506l1.729-6.675h3.2l.763-3.081Z" transform="translate(-328.759 -289.882)" fill="#ffcb05"/>
  </g>
</svg>
